<svg width="12" height="10" viewBox="0 0 12 10" fill="none" xmlns="http://www.w3.org/2000/svg">
<path d="M0.666748 4.81714C0.666748 4.56401 0.854851 4.35481 1.0989 4.3217L1.16675 4.31714L11.1667 4.31714C11.4429 4.31714 11.6667 4.541 11.6667 4.81714C11.6667 5.07027 11.4786 5.27947 11.2346 5.31257L11.1667 5.31714L1.16675 5.31714C0.890606 5.31714 0.666748 5.09328 0.666748 4.81714Z" fill="#46A358"/>
<path d="M6.78075 1.15514C6.58507 0.960301 6.58439 0.64372 6.77923 0.448038C6.95636 0.270145 7.2341 0.253409 7.43015 0.398224L7.48634 0.446515L11.5197 4.46252C11.6981 4.64017 11.7143 4.91891 11.5684 5.11496L11.5197 5.17111L7.48637 9.18778C7.2907 9.38264 6.97412 9.38198 6.77926 9.18632C6.60212 9.00844 6.58655 8.73063 6.7322 8.53519L6.78072 8.47921L10.4581 4.81663L6.78075 1.15514Z" fill="#46A358"/>
</svg>
